# xmcd CD database file
#
# Track frame offsets:
#	150
#	22597
#	41962
#	73882
#	82755
#	97612
#
# Disc length: 1712 seconds
#
# Revision: 0
# Processed by: cddbd v1.5.2PL0 Copyright (c) Steve Scherf et al.
# Submitted via: CDex 1.51
#
DISCID=3906ae06
DTITLE=Noahlewis' Mahlon Taits - Six Pieces For Dancing
DYEAR=2001
DGENRE=Jazz
TTITLE0=If You Were The Only Girl In The World
TTITLE1=Love Dance Of The Saroos
TTITLE2=Home
TTITLE3=Blues, Just Blues, That's All
TTITLE4=Allegria Boricua
TTITLE5=Tenderly
EXTD=YEAR: 2001
EXTT0=
EXTT1=
EXTT2=
EXTT3=
EXTT4=
EXTT5=
PLAYORDER=
